<svg viewBox="0 0 25 25" xmlns="http://www.w3.org/2000/svg"><path fill-rule="evenodd" clip-rule="evenodd" d="M3.67722 6.62312C5.52712 3.64027 8.72758 2 12.5 2C18.299 2 23 6.701 23 12.5C23 13.0523 22.5523 13.5 22 13.5C21.4477 13.5 21 13.0523 21 12.5C21 7.80558 17.1944 4 12.5 4C9.44818 4 6.87734 5.25782 5.37688 7.67722C5.0858 8.14657 4.46935 8.29108 4 8C3.53065 7.70892 3.38613 7.09247 3.67722 6.62312ZM3 11.5C3.55228 11.5 4 11.9477 4 12.5C4 17.1944 7.80558 21 12.5 21C15.5518 21 18.1226 19.7422 19.6231 17.3228C19.9142 16.8534 20.5307 16.7089 21 17C21.4693 17.2911 21.6139 17.9075 21.3228 18.3769C19.4729 21.3597 16.2724 23 12.5 23C6.701 23 2 18.299 2 12.5C2 11.9477 2.44772 11.5 3 11.5Z" /><path d="M19.5251 22.4749C19.5251 23.0272 19.9728 23.4749 20.5251 23.4749C21.0774 23.4749 21.5251 23.0272 21.5251 22.4749H19.5251ZM21.5251 17.5251C21.5251 16.9728 21.0774 16.5251 20.5251 16.5251C19.9728 16.5251 19.5251 16.9728 19.5251 17.5251H21.5251ZM15.5754 16.5251C15.0231 16.5251 14.5754 16.9728 14.5754 17.5251C14.5754 18.0774 15.0231 18.5251 15.5754 18.5251V16.5251ZM20.5251 18.5251C21.0774 18.5251 21.5251 18.0774 21.5251 17.5251C21.5251 16.9728 21.0774 16.5251 20.5251 16.5251V18.5251ZM21.5251 22.4749V17.5251H19.5251V22.4749H21.5251ZM15.5754 18.5251H20.5251V16.5251H15.5754V18.5251Z"/><path d="M5.47485 2.52512C5.47485 1.97283 5.02714 1.52512 4.47485 1.52512C3.92257 1.52512 3.47485 1.97283 3.47485 2.52512H5.47485ZM3.47485 7.47486C3.47485 8.02715 3.92257 8.47486 4.47485 8.47486C5.02714 8.47486 5.47485 8.02715 5.47485 7.47486H3.47485ZM9.4246 8.47486C9.97689 8.47486 10.4246 8.02715 10.4246 7.47486C10.4246 6.92258 9.97689 6.47486 9.4246 6.47486V8.47486ZM4.47485 6.47486C3.92257 6.47486 3.47485 6.92258 3.47485 7.47486C3.47485 8.02715 3.92257 8.47486 4.47485 8.47486V6.47486ZM3.47485 2.52512V7.47486H5.47485V2.52512H3.47485ZM9.4246 6.47486H4.47485V8.47486H9.4246V6.47486Z"/></svg>
