<?xml version="1.0" encoding="utf-8"?>
<!-- Generator: Adobe Illustrator 25.4.1, SVG Export Plug-In . SVG Version: 6.00 Build 0)  -->
<svg version="1.1" id="Layer_1" xmlns="http://www.w3.org/2000/svg" xmlns:xlink="http://www.w3.org/1999/xlink" x="0px" y="0px"
	 width="805px" height="210px" viewBox="0 0 805 210" style="enable-background:new 0 0 805 210;" xml:space="preserve">
<style type="text/css">
	.st0{fill:#001E3F;}
	.st1{fill:#007BBD;}
	.st2{fill:#005A8A;}
</style>
<path class="st0" d="M228.9,134.5c18.7,0,31.9-14.3,31.9-34.9c0-20.6-13.3-35.3-32-35.3s-31.9,14.3-31.9,35
	C196.9,119.9,210.2,134.5,228.9,134.5 M228.9,51.2c27.6,0,46.8,19.7,46.8,48c0,28.3-19.4,48.2-46.9,48.2
	c-27.6,0-46.8-19.7-46.8-47.9C182,71.3,201.6,51.2,228.9,51.2"/>
<path class="st0" d="M289.9,77.7c0-0.4,2.3-1.6,5.1-1.6c4.1,0,8.7,2.3,8.9,12c3-8.4,8.7-13,17.4-13c7.2,0,11.3,3.4,11.3,9.2
	c0,5.4-4,7.6-4.3,7.3c-2.1-1.7-4.9-3-8.7-3c-11.2,0-15.6,10.9-15.6,26.7v24.2c0,5.1-2.7,6.7-6.3,6.7h-1.6c-3.7,0-6.3-1.6-6.3-6.7
	V77.7z"/>
<path class="st0" d="M377.4,135.8c12.9,0,21.4-9.9,21.4-24.5c0-14.3-8.9-24.5-21.2-24.5c-10.6,0-17.9,5.6-21.4,14.3v15.3
	C356.6,127.6,366.2,135.8,377.4,135.8 M342.2,48.9c0-0.4,2.3-1.6,5.1-1.6c4.3,0,9,2.3,9,12.2v28c5.4-7.7,13.3-12.4,24-12.4
	c18.4,0,32.2,14.2,32.2,36c0,21.6-13.6,36.3-32.6,36.3c-11.6,0-20-5.6-23.7-12.2v4.1c0,5.1-2.6,6.7-6.1,6.7h-1.6
	c-3.7,0-6.3-1.6-6.3-6.7V48.9z"/>
<path class="st0" d="M425.1,83c0-5.1,2.7-6.9,6.4-6.9h1.4c3.7,0,6.3,1.6,6.3,6.9v56.5c0,5.1-2.6,6.7-6.3,6.7h-1.4
	c-3.7,0-6.4-1.6-6.4-6.7V83z M423.8,54.2c0-5.1,3.1-8,8.6-8c5.3,0,8.3,2.9,8.3,8c0,5.1-3,7.9-8.4,7.9
	C426.9,62.1,423.8,59.2,423.8,54.2"/>
<path class="st0" d="M463.5,88.4h-5c-4.4,0-6.1-1.9-6.1-5.3v-1c0-3.4,1.7-5.3,6.1-5.3h5V66.3c0-4.9,2.4-6.7,6.3-6.7h1.4
	c3.7,0,6.1,1.4,6.1,6.7v10.6h15.6c4.4,0,6,1.7,6,5.1v1c0,3.6-1.7,5.4-6.1,5.4h-15.6v34.8c0,8.6,2.4,12.7,9.2,12.7
	c4.4,0,7.6-2,9.7-4.9c0.4-0.4,4,1.6,4,6c0,5.3-5.9,10.4-16,10.4c-14.2,0-20.6-7.9-20.6-22.7V88.4z"/>
<path class="st1" d="M141.4,200.8c-9.3-1.6-15.6-10.4-14.1-19.7c1.5-9.3,10.2-15.5,19.5-13.9c9.3,1.6,15.6,10.4,14.1,19.7
	C159.4,196.2,150.7,202.4,141.4,200.8"/>
<path class="st2" d="M16.7,44.1C7.4,42.5,1.1,33.6,2.5,24.3C4,15.1,12.8,8.8,22,10.4c9.3,1.6,15.6,10.4,14.1,19.7
	C34.7,39.5,26,45.7,16.7,44.1"/>
<path class="st1" d="M140.8,52.1c-0.3-0.3-0.6-0.6-0.8-1c-25.4-27.7-68.7-29.4-96.8-3.7s-30.3,69-4.9,96.7c0.3,0.3,0.6,0.6,0.9,0.9
	L140.8,52.1z"/>
<path class="st2" d="M22.4,160.3c0.3,0.3,0.6,0.6,0.8,1c25.4,27.8,68.8,29.4,96.9,3.7s30.4-69.1,5-96.9c-0.3-0.3-0.6-0.6-0.9-0.9
	L22.4,160.3z"/>
<path class="st1" d="M514.6,60.8c0-5,2.4-8.3,7-8.3h2.4c4.4,0,6.2,1.9,8.9,5.6l45.8,65V59.2c0-4.4,1.9-6.7,6.2-6.7h1.7
	c4,0,6,2.3,6,6.7V138c0,5.2-2.6,8.3-6.9,8.3h-1.1c-4.4,0-5.6-1.3-7.9-4.4l-48.3-68.3v66c0,4.4-2,6.7-6.3,6.7h-1.6
	c-4.2,0-6-2.3-6-6.7V60.8z"/>
<path class="st1" d="M640.5,75.1c21.1,0,35.9,15.2,35.9,36.4c0,21.1-14.9,36.1-36.1,36.1c-21.3,0-36.1-15-36.1-36.4
	C604.3,90.2,619.2,75.1,640.5,75.1z M640.4,136c13.2,0,22.9-10.5,22.9-24.5c0-14.3-9.6-24.8-22.9-24.8c-13.2,0-23.1,10.3-23.1,24.5
	C617.3,125.4,627.2,136,640.4,136z"/>
<path class="st1" d="M693.1,88.4h-5c-4.4,0-6.2-1.9-6.2-5.3v-1c0-3.4,1.7-5.3,6.2-5.3h5V66.2c0-4.9,2.4-6.7,6.3-6.7h1.4
	c3.7,0,6.2,1.4,6.2,6.7v10.6h15.6c4.4,0,6,1.7,6,5.2v1c0,3.6-1.7,5.4-6.2,5.4h-15.6v34.8c0,8.6,2.4,12.7,9.2,12.7
	c4.4,0,7.6-2,9.7-4.9c0.4-0.4,4,1.6,4,6c0,5.3-5.9,10.5-16,10.5c-14.2,0-20.6-7.9-20.6-22.8V88.4z"/>
<path class="st1" d="M769.9,75.1c19.9,0,33.1,14,33.1,34.7v1.1c0,3-1,4.2-4.3,4.2h-50.8c1,12.7,10.5,21.3,23.5,21.3
	c12,0,18-5.3,21.6-11.5c0.3-0.3,7.4,1,7.4,7c0,6-10.6,15.6-29.4,15.6c-21.8,0-36.4-14.5-36.4-35.9C734.7,90.7,749.6,75.1,769.9,75.1
	z M789.2,105.5c-0.7-11.9-8-19.6-19.5-19.6c-11.3,0-20,8.2-21.8,19.6H789.2z"/>
</svg>
