<svg width="12" height="12" viewBox="0 0 12 12" fill="none" xmlns="http://www.w3.org/2000/svg">
<path d="M5.99982 8L2.29361 4.58299C2.1055 4.40909 1.99982 4.17323 1.99982 3.92729C1.99982 3.68136 2.1055 3.4455 2.29361 3.2716C2.48172 3.0977 2.73685 3 3.00288 3C3.26891 3 3.52405 3.0977 3.71216 3.2716L5.99982 5.39569L8.28748 3.2716C8.38062 3.18549 8.4912 3.11719 8.6129 3.07059C8.73459 3.02399 8.86503 3 8.99675 3C9.12848 3 9.25891 3.02399 9.38061 3.07059C9.50231 3.11719 9.61288 3.18549 9.70603 3.2716C9.79917 3.35771 9.87306 3.45993 9.92346 3.57243C9.97387 3.68494 9.99982 3.80552 9.99982 3.92729C9.99982 4.04907 9.97387 4.16965 9.92346 4.28216C9.87306 4.39466 9.79917 4.49688 9.70603 4.58299L5.99982 8Z" fill="#0F1111"/>
</svg>
