<svg width="20" height="21" viewBox="0 0 20 21" fill="none" xmlns="http://www.w3.org/2000/svg">
<path d="M17.23 4.72989L15.77 3.26989C15.2997 2.80212 14.6633 2.53955 14 2.53955C13.3367 2.53955 12.7003 2.80212 12.23 3.26989L2.6 12.9099C2.40983 13.0963 2.25879 13.3188 2.15576 13.5644C2.05273 13.8099 1.99977 14.0736 2 14.3399V17.4999C2 17.7651 2.10536 18.0195 2.29289 18.207C2.48043 18.3945 2.73478 18.4999 3 18.4999H6.18C6.70958 18.4977 7.21665 18.2855 7.59 17.9099L17.23 8.26989C17.4628 8.03766 17.6475 7.76178 17.7736 7.45806C17.8996 7.15433 17.9645 6.82872 17.9645 6.49989C17.9645 6.17105 17.8996 5.84545 17.7736 5.54172C17.6475 5.23799 17.4628 4.96212 17.23 4.72989ZM11.23 7.11989L13.4 9.28989L7.61 15.0599L5.44 12.8899L11.23 7.11989ZM6.18 16.4999H4V14.3199L6.2 16.4999H6.18ZM15.82 6.84989L14.82 7.84989L12.62 5.70989L13.62 4.70989C13.7147 4.62058 13.8399 4.57083 13.97 4.57083C14.1001 4.57083 14.2253 4.62058 14.32 4.70989L15.79 6.17989C15.8771 6.26799 15.9285 6.38532 15.934 6.50911C15.9395 6.63291 15.8989 6.75435 15.82 6.84989Z" fill="#0F1111"/>
</svg>
