<svg width="20" height="20" viewBox="0 0 20 20" fill="none" xmlns="http://www.w3.org/2000/svg">
<path d="M16.4 2H3.6C3.17565 2 2.76869 2.16857 2.46863 2.46863C2.16857 2.76869 2 3.17565 2 3.6V13.2C2 13.6243 2.16857 14.0313 2.46863 14.3314C2.76869 14.6314 3.17565 14.8 3.6 14.8H5.2V17.31C5.2 17.5222 5.28429 17.7257 5.43431 17.8757C5.58434 18.0257 5.78783 18.11 6 18.11C6.15409 18.1154 6.30659 18.0773 6.44 18L10 14.8H16.4C16.8243 14.8 17.2313 14.6314 17.5314 14.3314C17.8314 14.0313 18 13.6243 18 13.2V3.6C18 3.17565 17.8314 2.76869 17.5314 2.46863C17.2313 2.16857 16.8243 2 16.4 2V2ZM16 12.8H9.24L8.67 13.31L7.2 14.62V12.8H4V4H16V12.8Z" fill="white"/>
<path d="M7 8H13C13.2652 8 13.5196 7.89464 13.7071 7.70711C13.8946 7.51957 14 7.26522 14 7C14 6.73478 13.8946 6.48043 13.7071 6.29289C13.5196 6.10536 13.2652 6 13 6H7C6.73478 6 6.48043 6.10536 6.29289 6.29289C6.10536 6.48043 6 6.73478 6 7C6 7.26522 6.10536 7.51957 6.29289 7.70711C6.48043 7.89464 6.73478 8 7 8Z" fill="white"/>
<path d="M7 11H13C13.2652 11 13.5196 10.8946 13.7071 10.7071C13.8946 10.5196 14 10.2652 14 10C14 9.73478 13.8946 9.48043 13.7071 9.29289C13.5196 9.10536 13.2652 9 13 9H7C6.73478 9 6.48043 9.10536 6.29289 9.29289C6.10536 9.48043 6 9.73478 6 10C6 10.2652 6.10536 10.5196 6.29289 10.7071C6.48043 10.8946 6.73478 11 7 11Z" fill="white"/>
</svg>
