<svg width="16" height="16" viewBox="0 0 16 16" fill="none" xmlns="http://www.w3.org/2000/svg">
<path d="M9.40864 7.99915L13.7045 3.71268C13.7976 3.61952 13.8715 3.50892 13.9219 3.3872C13.9723 3.26548 13.9983 3.13502 13.9983 3.00326C13.9983 2.87151 13.9723 2.74105 13.9219 2.61933C13.8715 2.49761 13.7976 2.38701 13.7045 2.29385C13.6113 2.20069 13.5008 2.12679 13.3791 2.07637C13.2573 2.02595 13.1269 2 12.9952 2C12.8634 2 12.733 2.02595 12.6113 2.07637C12.4896 2.12679 12.379 2.20069 12.2859 2.29385L8 6.59031L3.71414 2.29385C3.62099 2.20069 3.51041 2.12679 3.38871 2.07637C3.267 2.02595 3.13656 2 3.00483 2C2.8731 2 2.74265 2.02595 2.62095 2.07637C2.49924 2.12679 2.38866 2.20069 2.29551 2.29385C2.10739 2.482 2.00171 2.73718 2.00171 3.00326C2.00171 3.26935 2.10739 3.52453 2.29551 3.71268L6.59136 7.99915L2.29551 12.2856C2.20187 12.3785 2.12755 12.489 2.07683 12.6108C2.02611 12.7325 2 12.8631 2 12.995C2 13.1269 2.02611 13.2575 2.07683 13.3793C2.12755 13.501 2.20187 13.6116 2.29551 13.7044C2.38839 13.7981 2.49888 13.8724 2.62062 13.9232C2.74236 13.9739 2.87294 14 3.00483 14C3.13671 14 3.26729 13.9739 3.38903 13.9232C3.51077 13.8724 3.62127 13.7981 3.71414 13.7044L8 9.40799L12.2859 13.7044C12.3787 13.7981 12.4892 13.8724 12.611 13.9232C12.7327 13.9739 12.8633 14 12.9952 14C13.1271 14 13.2576 13.9739 13.3794 13.9232C13.5011 13.8724 13.6116 13.7981 13.7045 13.7044C13.7981 13.6116 13.8724 13.501 13.9232 13.3793C13.9739 13.2575 14 13.1269 14 12.995C14 12.8631 13.9739 12.7325 13.9232 12.6108C13.8724 12.489 13.7981 12.3785 13.7045 12.2856L9.40864 7.99915Z" fill="#303333"/>
</svg>
