<svg width="20" height="20" viewBox="0 0 20 20" fill="none" xmlns="http://www.w3.org/2000/svg">
<path d="M6 16C6 16.5304 6.21071 17.0391 6.58579 17.4142C6.96086 17.7893 7.46957 18 8 18H12C12.5304 18 13.0391 17.7893 13.4142 17.4142C13.7893 17.0391 14 16.5304 14 16L15 6H5L6 16ZM12.79 8L12 15.8V16H8V15.8L7.21 8H12.79Z" fill="#0F1111"/>
<path d="M15 3H11.67C11.67 2.73478 11.5646 2.48043 11.3771 2.29289C11.1896 2.10536 10.9352 2 10.67 2H9.33C9.06478 2 8.81043 2.10536 8.62289 2.29289C8.43536 2.48043 8.33 2.73478 8.33 3H5C4.73478 3 4.48043 3.10536 4.29289 3.29289C4.10536 3.48043 4 3.73478 4 4C4 4.26522 4.10536 4.51957 4.29289 4.70711C4.48043 4.89464 4.73478 5 5 5H15C15.2652 5 15.5196 4.89464 15.7071 4.70711C15.8946 4.51957 16 4.26522 16 4C16 3.73478 15.8946 3.48043 15.7071 3.29289C15.5196 3.10536 15.2652 3 15 3Z" fill="#0F1111"/>
</svg>
