<svg width="24" height="24" viewBox="0 0 24 24" fill="none" xmlns="http://www.w3.org/2000/svg">
<path d="M21.57 15.08C21.4492 15.027 21.3192 14.9985 21.1874 14.996C21.0555 14.9935 20.9245 15.0171 20.8018 15.0654C20.6791 15.1137 20.5672 15.1858 20.4725 15.2776C20.3778 15.3693 20.3022 15.4789 20.25 15.6C19.4966 17.3257 18.2209 18.7716 16.6026 19.7341C14.9842 20.6967 13.1048 21.1274 11.2288 20.9657C9.35277 20.8039 7.57475 20.0579 6.14504 18.8325C4.71533 17.6072 3.70595 15.9643 3.25902 14.1351C2.81209 12.306 2.95011 10.3827 3.65366 8.63616C4.35721 6.88958 5.59085 5.40766 7.18088 4.39903C8.77091 3.39041 10.6373 2.90589 12.5171 3.0137C14.397 3.12151 16.1957 3.81621 17.66 5H16C15.7348 5 15.4804 5.10536 15.2929 5.29289C15.1054 5.48043 15 5.73478 15 6C15 6.26522 15.1054 6.51957 15.2929 6.70711C15.4804 6.89464 15.7348 7 16 7H21V2C21 1.73478 20.8946 1.48043 20.7071 1.29289C20.5196 1.10536 20.2652 1 20 1C19.7348 1 19.4804 1.10536 19.2929 1.29289C19.1054 1.48043 19 1.73478 19 2V3.52C17.2214 2.05168 15.0262 1.17957 12.7248 1.02697C10.4235 0.874379 8.1324 1.44902 6.17548 2.66965C4.21855 3.89028 2.69481 5.69515 1.81968 7.82907C0.944545 9.963 0.762299 12.318 1.29871 14.5612C1.83511 16.8043 3.06304 18.8221 4.80887 20.3293C6.5547 21.8365 8.73011 22.7568 11.0275 22.9601C13.325 23.1633 15.6282 22.6394 17.6115 21.4622C19.5949 20.285 21.158 18.5141 22.08 16.4C22.1333 16.2799 22.1623 16.1504 22.1655 16.019C22.1687 15.8876 22.146 15.7569 22.0986 15.6343C22.0513 15.5117 21.9802 15.3996 21.8895 15.3045C21.7988 15.2094 21.6902 15.1331 21.57 15.08Z" fill="#418FDE"/>
<path d="M12 7C11.7348 7 11.4804 7.10536 11.2929 7.29289C11.1054 7.48043 11 7.73478 11 8V13C11 13.2652 11.1054 13.5196 11.2929 13.7071C11.4804 13.8946 11.7348 14 12 14H17C17.2652 14 17.5196 13.8946 17.7071 13.7071C17.8946 13.5196 18 13.2652 18 13C18 12.7348 17.8946 12.4804 17.7071 12.2929C17.5196 12.1054 17.2652 12 17 12H13V8C13 7.73478 12.8946 7.48043 12.7071 7.29289C12.5196 7.10536 12.2652 7 12 7Z" fill="#418FDE"/>
</svg>
