<svg width="24" height="24" viewBox="0 0 24 24" fill="none" xmlns="http://www.w3.org/2000/svg">
<path d="M12 8C11.2089 8 10.4355 8.2346 9.77772 8.67412C9.11993 9.11365 8.60723 9.73836 8.30448 10.4693C8.00173 11.2002 7.92252 12.0044 8.07686 12.7804C8.2312 13.5563 8.61216 14.269 9.17157 14.8284C9.73098 15.3878 10.4437 15.7688 11.2196 15.9231C11.9956 16.0775 12.7998 15.9983 13.5307 15.6955C14.2616 15.3928 14.8864 14.8801 15.3259 14.2223C15.7654 13.5645 16 12.7911 16 12C16 10.9391 15.5786 9.92172 14.8284 9.17157C14.0783 8.42143 13.0609 8 12 8ZM12 14C11.6044 14 11.2178 13.8827 10.8889 13.6629C10.56 13.4432 10.3036 13.1308 10.1522 12.7654C10.0009 12.3999 9.96126 11.9978 10.0384 11.6098C10.1156 11.2219 10.3061 10.8655 10.5858 10.5858C10.8655 10.3061 11.2219 10.1156 11.6098 10.0384C11.9978 9.96126 12.3999 10.0009 12.7654 10.1522C13.1308 10.3036 13.4432 10.56 13.6629 10.8889C13.8827 11.2178 14 11.6044 14 12C14 12.5304 13.7893 13.0391 13.4142 13.4142C13.0391 13.7893 12.5304 14 12 14Z" fill="#418FDE"/>
<path d="M21.21 13.7702L20 12.3202C20 12.2202 20 12.1102 20 12.0002C20 11.8902 20 11.6802 20 11.5302L21.05 10.5302C21.407 10.2258 21.6457 9.80571 21.7243 9.34323C21.8029 8.88075 21.7165 8.40535 21.48 8.00017L20.36 6.00017C20.1838 5.69496 19.9301 5.44174 19.6245 5.26613C19.319 5.09052 18.9725 4.99877 18.62 5.00017C18.419 4.99836 18.2192 5.03221 18.03 5.10017L16.54 5.47017C16.1887 5.22605 15.8173 5.01196 15.43 4.83017L15.12 3.66017C15.0286 3.19978 14.7781 2.78621 14.4125 2.49187C14.0469 2.19754 13.5893 2.04118 13.12 2.05017H10.82C10.3507 2.04118 9.89322 2.19754 9.52758 2.49187C9.16194 2.78621 8.91148 3.19978 8.82004 3.66017L8.57004 4.78017C8.1672 4.96822 7.78229 5.19247 7.42004 5.45017L6.20004 5.10017C5.76055 4.92147 5.27185 4.90483 4.82122 5.05321C4.37059 5.20158 3.98738 5.50532 3.74004 5.91017L2.54004 7.91017C2.30363 8.29839 2.2065 8.75555 2.26467 9.20635C2.32284 9.65714 2.53282 10.0747 2.86004 10.3902L4.00004 11.5802C4.00004 11.7202 4.00004 11.8602 4.00004 12.0002C3.99505 12.0768 3.99505 12.1536 4.00004 12.2302L2.76004 13.8402C2.43388 14.183 2.23982 14.6303 2.21236 15.1027C2.18489 15.5751 2.3258 16.0419 2.61004 16.4202L4.00004 18.2602C4.18531 18.5072 4.42528 18.708 4.70114 18.8468C4.97699 18.9856 5.28124 19.0586 5.59004 19.0602C5.89176 19.0632 6.1899 18.9946 6.46004 18.8602L7.35004 18.5102C7.73432 18.7834 8.14267 19.021 8.57004 19.2202L8.88004 20.3902C8.97148 20.8506 9.22194 21.2641 9.58758 21.5585C9.95322 21.8528 10.4107 22.0092 10.88 22.0002H13.18C13.6493 22.0092 14.1069 21.8528 14.4725 21.5585C14.8381 21.2641 15.0886 20.8506 15.18 20.3902L15.49 19.2202C15.9074 19.0217 16.3086 18.791 16.69 18.5302L17.69 18.9002C17.9429 19.0079 18.2152 19.0624 18.49 19.0602C18.8125 19.0596 19.13 18.9812 19.4156 18.8314C19.7011 18.6817 19.9462 18.4651 20.13 18.2002L21.44 16.3002C21.7007 15.9171 21.8203 15.4554 21.7783 14.994C21.7364 14.5325 21.5355 14.1 21.21 13.7702ZM18.47 17.0602H18.4H18.34L17.29 16.6902L16.29 16.3502L15.45 16.9402C15.171 17.142 14.8729 17.3162 14.56 17.4602L13.72 17.8602L13.48 18.7502L13.17 19.9102V19.9802V20.0502H10.87V19.9802V19.9102L10.5 18.7002L10.26 17.8102L9.42004 17.4102C9.10383 17.2566 8.79963 17.0794 8.51004 16.8802L7.63004 16.2502L6.63004 16.6502L5.72004 17.0002H5.66004H5.59004L4.21004 15.2202L4.28004 15.1402L4.34004 15.0602L5.59004 13.4502L6.00004 12.8702V12.1402V12.0002C6.00004 11.9002 6.00004 11.7902 6.00004 11.6902V10.8302L5.41004 10.2102L4.32004 9.00017L4.25004 8.93017L5.45004 6.93017H5.55004H5.64004L6.87004 7.28017L7.78004 7.54017L8.56004 7.00017C8.83844 6.81112 9.12908 6.64075 9.43004 6.49017L10.26 6.10017L10.5 5.21017L10.81 4.05017V3.98017V3.91017H13.11V3.98017V4.05017L13.5 5.30017L13.74 6.19017L14.57 6.59017C14.8649 6.72264 15.1462 6.8834 15.41 7.07017L16.15 7.58017L17 7.36017L18.52 7.00017H18.61L19.74 9.00017H19.68L19.63 9.05017L18.58 10.0502L17.93 10.6902L17.99 11.6102C17.99 11.7202 17.99 11.8402 17.99 11.9502C17.9953 12.0268 17.9953 12.1036 17.99 12.1802L18 13.0002L18.5 13.5902L19.72 15.0402H19.77L19.82 15.0902L18.47 17.0602Z" fill="#418FDE"/>
</svg>
