<svg width="18" height="18" viewBox="0 0 18 18" fill="none" xmlns="http://www.w3.org/2000/svg">
<path d="M9.00006 18C13.9706 18 18.0001 13.9706 18.0001 9C18.0001 4.02944 13.9706 0 9.00006 0C4.0295 0 6.10352e-05 4.02944 6.10352e-05 9C6.10352e-05 13.9706 4.0295 18 9.00006 18Z" fill="#CC0C39"/>
<path d="M9.00006 4C8.73484 4 8.48049 4.10536 8.29295 4.29289C8.10542 4.48043 8.00006 4.73478 8.00006 5V10C8.00006 10.2652 8.10542 10.5196 8.29295 10.7071C8.48049 10.8946 8.73484 11 9.00006 11C9.26528 11 9.51963 10.8946 9.70717 10.7071C9.8947 10.5196 10.0001 10.2652 10.0001 10V5C10.0001 4.73478 9.8947 4.48043 9.70717 4.29289C9.51963 4.10536 9.26528 4 9.00006 4Z" fill="white"/>
<path d="M9.00006 14C9.55235 14 10.0001 13.5523 10.0001 13C10.0001 12.4477 9.55235 12 9.00006 12C8.44778 12 8.00006 12.4477 8.00006 13C8.00006 13.5523 8.44778 14 9.00006 14Z" fill="white"/>
</svg>
