<svg width="24" height="24" viewBox="0 0 24 24" fill="none" xmlns="http://www.w3.org/2000/svg">
<path d="M20.88 4.88004L19.12 3.12004C18.5575 2.55823 17.795 2.24268 17 2.24268C16.205 2.24268 15.4425 2.55823 14.88 3.12004L2.59 15.41C2.40283 15.5961 2.25434 15.8174 2.15308 16.0611C2.05182 16.3048 1.99979 16.5661 2 16.83V21C2 21.2653 2.10536 21.5196 2.29289 21.7071C2.48043 21.8947 2.73478 22 3 22H7.17C7.43391 22.0002 7.69526 21.9482 7.93897 21.847C8.18268 21.7457 8.40394 21.5972 8.59 21.41L20.88 9.12004C21.4418 8.55753 21.7574 7.79504 21.7574 7.00004C21.7574 6.20503 21.4418 5.44254 20.88 4.88004ZM5.12 15.71L13.71 7.12004L16.88 10.29L8.29 18.88L5.12 15.71ZM4 17.41L6.59 20H4V17.41ZM19.46 7.71004L18.29 8.88004L15.12 5.71004L16.29 4.54004C16.383 4.44631 16.4936 4.37191 16.6154 4.32114C16.7373 4.27038 16.868 4.24424 17 4.24424C17.132 4.24424 17.2627 4.27038 17.3846 4.32114C17.5064 4.37191 17.617 4.44631 17.71 4.54004L19.46 6.29004C19.5537 6.383 19.6281 6.4936 19.6789 6.61546C19.7297 6.73732 19.7558 6.86802 19.7558 7.00004C19.7558 7.13205 19.7297 7.26275 19.6789 7.38461C19.6281 7.50647 19.5537 7.61707 19.46 7.71004Z" fill="#418FDE"/>
</svg>
