<svg width="20" height="20" viewBox="0 0 20 20" fill="none" xmlns="http://www.w3.org/2000/svg">
<path d="M17.0207 8.97644H5.91664L9.10655 5.75134C9.20067 5.65655 9.27546 5.54389 9.32665 5.41978C9.37784 5.29568 9.40443 5.16256 9.4049 5.02804C9.40537 4.89351 9.37971 4.7602 9.32938 4.63574C9.27906 4.51127 9.20505 4.39807 9.1116 4.30261C9.01814 4.20715 8.90706 4.13129 8.78469 4.07937C8.66233 4.02745 8.53108 4.00048 8.39845 4.00001C8.26581 3.99953 8.13438 4.02556 8.01165 4.0766C7.88893 4.12764 7.77733 4.2027 7.6832 4.29749L1.99992 10.0003L7.6832 15.7031C7.77753 15.798 7.88939 15.873 8.01238 15.924C8.13537 15.9749 8.26707 16.0008 8.39992 16C8.53348 15.9994 8.6656 15.972 8.78863 15.9193C8.91166 15.8665 9.02315 15.7896 9.11664 15.6928C9.30466 15.501 9.41019 15.2415 9.41019 14.971C9.41019 14.7005 9.30466 14.441 9.11664 14.2492L5.88636 11.0241H16.9905C17.2582 11.0241 17.5149 10.9163 17.7043 10.7242C17.8936 10.5322 17.9999 10.2718 17.9999 10.0003C17.9999 9.72874 17.8936 9.46832 17.7043 9.27632C17.5149 9.08431 17.2582 8.97644 16.9905 8.97644H17.0207Z" fill="#0F1111"/>
</svg>
