<svg width="24" height="24" viewBox="0 0 24 24" fill="none" xmlns="http://www.w3.org/2000/svg">
<path d="M12 8C11.2089 8 10.4355 8.2346 9.77772 8.67412C9.11993 9.11365 8.60723 9.73836 8.30448 10.4693C8.00173 11.2002 7.92252 12.0044 8.07686 12.7804C8.2312 13.5563 8.61216 14.269 9.17157 14.8284C9.73098 15.3878 10.4437 15.7688 11.2196 15.9231C11.9956 16.0775 12.7998 15.9983 13.5307 15.6955C14.2616 15.3928 14.8864 14.8801 15.3259 14.2223C15.7654 13.5645 16 12.7911 16 12C16 10.9391 15.5786 9.92172 14.8284 9.17157C14.0783 8.42143 13.0609 8 12 8ZM12 14C11.6044 14 11.2178 13.8827 10.8889 13.6629C10.56 13.4432 10.3036 13.1308 10.1522 12.7654C10.0009 12.3999 9.96126 11.9978 10.0384 11.6098C10.1156 11.2219 10.3061 10.8655 10.5858 10.5858C10.8655 10.3061 11.2219 10.1156 11.6098 10.0384C11.9978 9.96126 12.3999 10.0009 12.7654 10.1522C13.1308 10.3036 13.4432 10.56 13.6629 10.8889C13.8827 11.2178 14 11.6044 14 12C14 12.5304 13.7893 13.0391 13.4142 13.4142C13.0391 13.7893 12.5304 14 12 14Z" fill="#0F1111"/>
<path d="M12 4.99977C9.80225 4.93703 7.64276 5.58403 5.84156 6.84487C4.04036 8.10571 2.6933 9.9133 2 11.9998C2.6933 14.0862 4.04036 15.8938 5.84156 17.1547C7.64276 18.4155 9.80225 19.0625 12 18.9998C14.1977 19.0625 16.3572 18.4155 18.1584 17.1547C19.9596 15.8938 21.3067 14.0862 22 11.9998C21.3067 9.9133 19.9596 8.10571 18.1584 6.84487C16.3572 5.58403 14.1977 4.93703 12 4.99977ZM12 16.9998C10.3359 17.0629 8.69195 16.6184 7.28634 15.7254C5.88072 14.8324 4.77991 13.533 4.13 11.9998C4.78107 10.4674 5.88215 9.16881 7.28749 8.27597C8.69283 7.38312 10.3362 6.93809 12 6.99977C13.6641 6.93668 15.3081 7.38114 16.7137 8.27416C18.1193 9.16718 19.2201 10.4665 19.87 11.9998C19.2189 13.5322 18.1179 14.8307 16.7125 15.7236C15.3072 16.6164 13.6638 17.0615 12 16.9998Z" fill="#0F1111"/>
</svg>
