<svg viewBox="0 0 18 19" xmlns="http://www.w3.org/2000/svg"> <path fill-rule="evenodd" clip-rule="evenodd" d="M7.08065 4.19695C7.36884 4.45723 7.39146 4.90185 7.13118 5.19003L4.32355 8.29868C4.31527 8.30802 4.3067 8.3172 4.29783 8.3262C4.15468 8.47175 3.96212 8.54237 3.7711 8.53547C3.69142 8.53259 3.61201 8.51622 3.53657 8.48617C3.45184 8.45247 3.37238 8.40166 3.3035 8.33378C3.29994 8.33028 3.29642 8.32675 3.29295 8.32319L1.88989 6.89984C1.61728 6.62329 1.62047 6.17811 1.89702 5.9055C2.17357 5.63289 2.61875 5.63608 2.89136 5.91263L3.7745 6.80854L6.08757 4.24748C6.34785 3.95929 6.79247 3.93667 7.08065 4.19695ZM8.4375 6.26563C8.4375 5.8773 8.7523 5.5625 9.14062 5.5625H15.6094C15.9977 5.5625 16.3125 5.8773 16.3125 6.26563C16.3125 6.65395 15.9977 6.96875 15.6094 6.96875H9.14062C8.7523 6.96875 8.4375 6.65395 8.4375 6.26563ZM8.4375 13.0156C8.4375 12.6273 8.7523 12.3125 9.14062 12.3125H15.6094C15.9977 12.3125 16.3125 12.6273 16.3125 13.0156C16.3125 13.404 15.9977 13.7188 15.6094 13.7188H9.14062C8.7523 13.7188 8.4375 13.404 8.4375 13.0156ZM4.78125 10.625H3.375C2.44302 10.625 1.6875 11.3805 1.6875 12.3125V13.7188C1.6875 14.6507 2.44302 15.4063 3.375 15.4063H4.78125C5.71323 15.4063 6.46875 14.6507 6.46875 13.7188V12.3125C6.46875 11.3805 5.71323 10.625 4.78125 10.625ZM3.09375 12.3125C3.09375 12.1572 3.21967 12.0313 3.375 12.0313H4.78125C4.93658 12.0313 5.0625 12.1572 5.0625 12.3125V13.7188C5.0625 13.8741 4.93658 14 4.78125 14H3.375C3.21967 14 3.09375 13.8741 3.09375 13.7188V12.3125Z" /> </svg>
