<svg viewBox="0 0 24 24" xmlns="http://www.w3.org/2000/svg"><path fill-rule="evenodd" clip-rule="evenodd" d="M14.0354 2.4546C13.7155 2.6374 13.3869 2.91903 13.1736 3.40086C16.1779 2.77157 18.6613 3.40893 20.4799 4.9073C22.549 6.61202 23.6063 9.30795 23.6948 12.0637C23.7836 14.8269 22.9054 17.7587 20.9631 20.0124C19.0031 22.2867 16.0079 23.8125 12 23.8125C7.99205 23.8125 4.99693 22.2867 3.03691 20.0124C1.09463 17.7587 0.216441 14.8269 0.305169 12.0637C0.393656 9.30795 1.45101 6.61202 3.52007 4.9073C5.33868 3.40893 7.82212 2.77157 10.8264 3.40086C10.6131 2.91903 10.2845 2.6374 9.96456 2.4546C9.35148 2.10428 8.65291 2.0625 8.4375 2.0625C7.91973 2.0625 7.5 1.64277 7.5 1.125C7.5 0.607233 7.91973 0.1875 8.4375 0.1875C8.78459 0.1875 9.86726 0.239475 10.8948 0.826648C11.2978 1.0569 11.6787 1.36252 12 1.75668C12.3213 1.36252 12.7022 1.0569 13.1052 0.826648C14.1327 0.239475 15.2154 0.1875 15.5625 0.1875C16.0803 0.1875 16.5 0.607233 16.5 1.125C16.5 1.64277 16.0803 2.0625 15.5625 2.0625C15.3471 2.0625 14.6485 2.10428 14.0354 2.4546ZM11.6869 5.57144C8.52084 4.53618 6.22936 5.10453 4.71235 6.3544C3.22345 7.58113 2.33575 9.58298 2.19408 11.8125H5.625V10.6875C5.625 10.1697 6.04473 9.75 6.5625 9.75C7.08027 9.75 7.5 10.1697 7.5 10.6875V11.8125H11.0625V9.5625C11.0625 9.04473 11.4822 8.625 12 8.625C12.5178 8.625 12.9375 9.04473 12.9375 9.5625V11.8125H16.5V10.6875C16.5 10.1697 16.9197 9.75 17.4375 9.75C17.9553 9.75 18.375 10.1697 18.375 10.6875V11.8125H21.8059C21.6642 9.58299 20.7766 7.58113 19.2876 6.3544C17.7706 5.10453 15.4792 4.53618 12.3131 5.57144C12.2152 5.60612 12.1098 5.625 12 5.625C11.8902 5.625 11.7848 5.60612 11.6869 5.57144ZM4.45723 18.7884C3.20862 17.3396 2.47713 15.5271 2.25049 13.6875L21.7495 13.6875C21.5229 15.5271 20.7914 17.3396 19.5428 18.7884C17.9579 20.6274 15.492 21.9375 12 21.9375C8.50795 21.9375 6.04213 20.6274 4.45723 18.7884Z"/></svg>
