<svg viewBox="0 0 13 13" xmlns="http://www.w3.org/2000/svg"><path fill-rule="evenodd" clip-rule="evenodd" d="M7.01503 5.79628C6.6184 6.19291 5.97535 6.19291 5.57872 5.79628L3.54747 3.76503C3.49789 3.71545 3.45451 3.66202 3.41733 3.60571C3.15704 3.21149 3.20042 2.67577 3.54747 2.32872L5.57872 0.29747C5.97535 -0.0991564 6.6184 -0.0991567 7.01503 0.29747C7.41166 0.694096 7.41166 1.33715 7.01503 1.73378L5.70194 3.04688L7.01503 4.35997C7.41166 4.7566 7.41166 5.39965 7.01503 5.79628Z" /><path fill-rule="evenodd" clip-rule="evenodd" d="M5.48438 2.94531C5.48438 2.3844 5.93909 1.92969 6.5 1.92969C9.52894 1.92969 11.9844 4.38513 11.9844 7.41406C11.9844 10.443 9.52894 12.8984 6.5 12.8984C3.47106 12.8984 1.01562 10.443 1.01562 7.41406C1.01562 6.85315 1.47034 6.39844 2.03125 6.39844C2.59216 6.39844 3.04688 6.85315 3.04688 7.41406C3.04688 9.32117 4.59289 10.8672 6.5 10.8672C8.40711 10.8672 9.95312 9.32117 9.95312 7.41406C9.95312 5.50695 8.40711 3.96094 6.5 3.96094C5.93909 3.96094 5.48438 3.50623 5.48438 2.94531Z" /></svg>
