<svg viewBox="0 0 13 13" xmlns="http://www.w3.org/2000/svg"><g clip-path="url(#clip0_1499_4435)"><path d="M11.1719 5.48438H7.71875C7.60658 5.48438 7.51562 5.39342 7.51562 5.28125V1.82812C7.51562 1.26725 7.06087 0.8125 6.5 0.8125C5.93913 0.8125 5.48438 1.26725 5.48438 1.82812V5.28125C5.48438 5.39342 5.39342 5.48438 5.28125 5.48438H1.82812C1.26725 5.48438 0.8125 5.93913 0.8125 6.5C0.8125 7.06087 1.26725 7.51562 1.82812 7.51562H5.28125C5.39342 7.51562 5.48438 7.60658 5.48438 7.71875V11.1719C5.48438 11.7327 5.93913 12.1875 6.5 12.1875C7.06087 12.1875 7.51562 11.7327 7.51562 11.1719V7.71875C7.51562 7.60658 7.60658 7.51562 7.71875 7.51562H11.1719C11.7327 7.51562 12.1875 7.06087 12.1875 6.5C12.1875 5.93913 11.7327 5.48438 11.1719 5.48438Z"/></g><defs><clipPath id="clip0_1499_4435"><rect width="13" height="13"/></clipPath></defs></svg>
