<svg width="22" height="16" viewBox="0 0 22 16" fill="none" xmlns="http://www.w3.org/2000/svg">
<mask id="mask0_12_5367" style="mask-type:alpha" maskUnits="userSpaceOnUse" x="0" y="0" width="22" height="16">
<path d="M21 0H1C0.447715 0 0 0.447715 0 1V15C0 15.5523 0.447715 16 1 16H21C21.5523 16 22 15.5523 22 15V1C22 0.447715 21.5523 0 21 0Z" fill="white"/>
</mask>
<g mask="url(#mask0_12_5367)">
<path d="M21.5 -0.5H0.5C-0.0522848 -0.5 -0.5 -0.0522848 -0.5 0.5V15.5C-0.5 16.0523 -0.0522848 16.5 0.5 16.5H21.5C22.0523 16.5 22.5 16.0523 22.5 15.5V0.5C22.5 -0.0522848 22.0523 -0.5 21.5 -0.5Z" stroke="black" stroke-opacity="0.3"/>
<path d="M22 0H0V16H22V0Z" fill="#004990"/>
<path fill-rule="evenodd" clip-rule="evenodd" d="M4.81199 0.0500031V2.884H0.0499878V5.311H4.81199V8.146H7.19299V5.311H11.955V2.884H7.19299V0.0500031H4.81199Z" fill="white"/>
<path fill-rule="evenodd" clip-rule="evenodd" d="M0.0499878 0.0500031V0.987003L10.578 8.146H11.955V7.214L1.41699 0.0500031H0.0499878Z" fill="white"/>
<path fill-rule="evenodd" clip-rule="evenodd" d="M10.589 0.0500031L0.0509949 7.214V8.146H1.42599L11.956 0.987003V0.0500031H10.589Z" fill="white"/>
<path fill-rule="evenodd" clip-rule="evenodd" d="M5.30799 0.0500031V3.388H0.0509949V4.806H5.30799V8.146H6.69599V4.806H11.955V3.388H6.69599V0.0500031H5.30799Z" fill="#EF3E42"/>
<path fill-rule="evenodd" clip-rule="evenodd" d="M11.955 8.122V7.482L8.75498 5.312H7.81198L11.955 8.122Z" fill="#EF3E42"/>
<path fill-rule="evenodd" clip-rule="evenodd" d="M11.014 0.0500031L7.19299 2.642V2.884H7.77999L11.955 0.0510031V0.0500031H11.014Z" fill="#EF3E42"/>
<path fill-rule="evenodd" clip-rule="evenodd" d="M4.19399 5.312L0.0509949 8.123V8.146H0.958995L4.81099 5.532V5.312H4.19399Z" fill="#EF3E42"/>
<path fill-rule="evenodd" clip-rule="evenodd" d="M0.0499878 0.695008L3.27699 2.88401H4.21899L0.0499878 0.0550079V0.695008Z" fill="#EF3E42"/>
<path fill-rule="evenodd" clip-rule="evenodd" d="M6.00199 10.332L6.36499 11.481L7.47099 11.053L6.81799 12.059L7.83499 12.676L6.65699 12.78L6.81799 13.975L6.00199 13.101L5.18699 13.975L5.34899 12.78L4.17099 12.676L5.18699 12.059L4.53299 11.053L5.63999 11.481L6.00199 10.332Z" fill="white"/>
<path fill-rule="evenodd" clip-rule="evenodd" d="M17.907 12.637L18.085 13.2L18.626 12.991L18.306 13.481L18.802 13.782L18.227 13.833L18.306 14.419L17.907 13.99L17.51 14.419L17.587 13.833L17.013 13.782L17.51 13.481L17.189 12.991L17.731 13.2L17.907 12.637Z" fill="white"/>
<path fill-rule="evenodd" clip-rule="evenodd" d="M14.933 6.23L15.11 6.792L15.651 6.583L15.331 7.074L15.83 7.375L15.252 7.426L15.332 8.011L14.933 7.584L14.535 8.011L14.614 7.426L14.038 7.375L14.536 7.074L14.215 6.583L14.756 6.792L14.933 6.23Z" fill="white"/>
<path fill-rule="evenodd" clip-rule="evenodd" d="M17.907 1.856L18.085 2.417L18.626 2.208L18.306 2.699L18.802 3.001L18.227 3.052L18.306 3.637L17.907 3.209L17.51 3.637L17.587 3.052L17.013 3.001L17.51 2.699L17.189 2.208L17.731 2.417L17.907 1.856Z" fill="white"/>
<path fill-rule="evenodd" clip-rule="evenodd" d="M20.552 5.161L20.728 5.723L21.27 5.514L20.95 6.006L21.447 6.306L20.871 6.358L20.95 6.942L20.552 6.513L20.153 6.942L20.233 6.358L19.657 6.306L20.154 6.006L19.833 5.514L20.375 5.723L20.552 5.161Z" fill="white"/>
<path fill-rule="evenodd" clip-rule="evenodd" d="M18.969 8.675L18.609 8.701L18.885 8.939L18.8 9.295L19.104 9.102L19.411 9.295L19.325 8.939L19.601 8.701L19.241 8.675L19.104 8.334L18.969 8.675Z" fill="white"/>
</g>
</svg>
