<svg width="22" height="16" viewBox="0 0 22 16" fill="none" xmlns="http://www.w3.org/2000/svg">
<mask id="mask0_12_10026" style="mask-type:alpha" maskUnits="userSpaceOnUse" x="0" y="0" width="22" height="16">
<path d="M21 0H1C0.447715 0 0 0.447715 0 1V15C0 15.5523 0.447715 16 1 16H21C21.5523 16 22 15.5523 22 15V1C22 0.447715 21.5523 0 21 0Z" fill="white"/>
</mask>
<g mask="url(#mask0_12_10026)">
<path d="M21.5 -0.5H0.5C-0.0522848 -0.5 -0.5 -0.0522848 -0.5 0.5V15.5C-0.5 16.0523 -0.0522848 16.5 0.5 16.5H21.5C22.0523 16.5 22.5 16.0523 22.5 15.5V0.5C22.5 -0.0522848 22.0523 -0.5 21.5 -0.5Z" stroke="black" stroke-opacity="0.3"/>
<path d="M22 0H0V16H22V0Z" fill="#00923E"/>
<path fill-rule="evenodd" clip-rule="evenodd" d="M0.631012 8.125L10.911 14.689L21.192 8.125L10.911 1.56L0.631012 8.125Z" fill="#F8C100"/>
<path fill-rule="evenodd" clip-rule="evenodd" d="M10.911 3.72098C13.3423 3.72098 15.3133 5.69326 15.3133 8.12455C15.3133 10.5571 13.3423 12.5281 10.911 12.5281C8.47713 12.5281 6.50613 10.5571 6.50613 8.12455C6.50613 5.69326 8.47713 3.72098 10.911 3.72098Z" fill="#28166F"/>
<path fill-rule="evenodd" clip-rule="evenodd" d="M15.2917 8.56748C13.3657 7.03106 10.9048 6.1452 8.24854 6.24034C7.77926 6.25577 7.31769 6.30591 6.86511 6.38177C6.77126 6.59906 6.69411 6.82663 6.63754 7.06191C7.16726 6.9552 7.71111 6.88834 8.27169 6.86777C10.892 6.7752 13.3143 7.69448 15.1618 9.27206C15.2235 9.04448 15.2673 8.80791 15.2917 8.56748Z" fill="white"/>
<path fill-rule="evenodd" clip-rule="evenodd" d="M7.0802 6.65909L7.12905 6.76323L7.21905 6.78894L7.29877 6.74009L7.31548 6.62437L7.26791 6.51894L7.17662 6.4958L7.09691 6.54466L7.0802 6.65909ZM6.99277 6.67452L6.99662 6.56266L7.0262 6.49837L7.07634 6.45209L7.16634 6.42123L7.32448 6.45852L7.40548 6.6128L7.37205 6.78252L7.23062 6.86223L7.0712 6.82623L6.99277 6.67452ZM7.66404 6.55237L7.72704 6.54723L7.80418 6.53437L7.82732 6.5138L7.83375 6.48166L7.81961 6.44694L7.7849 6.43409L7.72061 6.43794L7.65375 6.44437L7.66404 6.55237ZM7.59847 6.80823L7.56118 6.3788L7.74247 6.36337L7.84532 6.36466L7.89804 6.40194L7.92247 6.4688L7.9019 6.5498L7.81961 6.59737L7.86975 6.62952L7.92375 6.6938L7.98418 6.77352L7.88132 6.78252L7.80932 6.69509L7.75918 6.63595L7.73218 6.62052L7.68718 6.61923L7.66918 6.6218L7.6859 6.80052L7.59847 6.80823ZM8.20892 6.40413L8.21664 6.68956L8.28221 6.68699L8.33492 6.68184L8.36835 6.66256L8.39021 6.62013L8.39664 6.5417L8.38635 6.46584L8.35935 6.4247L8.3195 6.40542L8.2475 6.40413H8.20892ZM8.12021 6.33342L8.27964 6.32956L8.36064 6.3347L8.42621 6.37327L8.46992 6.44142L8.48664 6.54299L8.47507 6.63556L8.43264 6.7127L8.37221 6.7487L8.29378 6.76027L8.1305 6.76413L8.12021 6.33342Z" fill="#00923E"/>
<path fill-rule="evenodd" clip-rule="evenodd" d="M8.66101 6.752L8.66601 6.321L8.98601 6.326L8.98501 6.4L8.75201 6.396L8.75101 6.491L8.96701 6.495L8.96601 6.567L8.75001 6.564L8.74701 6.681L8.98901 6.684L8.98801 6.757L8.66101 6.752Z" fill="#00923E"/>
<path fill-rule="evenodd" clip-rule="evenodd" d="M9.16101 6.763L9.19001 6.334L9.32001 6.343L9.37801 6.641L9.47401 6.354L9.60501 6.362L9.57501 6.792L9.49501 6.788L9.51801 6.448L9.40901 6.781L9.32601 6.775L9.26501 6.43L9.24001 6.768L9.16101 6.763Z" fill="#00923E"/>
<path fill-rule="evenodd" clip-rule="evenodd" d="M10.021 6.844L10.085 6.418L10.401 6.467L10.39 6.539L10.16 6.503L10.145 6.598L10.36 6.629L10.349 6.702L10.135 6.669L10.117 6.786L10.356 6.82L10.345 6.894L10.021 6.844Z" fill="#00923E"/>
<path fill-rule="evenodd" clip-rule="evenodd" d="M10.9335 6.64521L10.9065 6.76478L10.9528 6.77506L11.0209 6.78406L11.0531 6.76992L11.0685 6.73906L11.0646 6.69792L11.0338 6.67221L10.9746 6.65421L10.9335 6.64521ZM10.7676 6.97435L10.8654 6.55521L11.0016 6.58606L11.1006 6.61564L11.1521 6.67092L11.1572 6.75706L11.1276 6.82006L11.0826 6.85349L11.0338 6.86249L10.9451 6.84835L10.8898 6.83549L10.8538 6.99363L10.7676 6.97435ZM11.4093 6.87754L11.4711 6.89553L11.5469 6.91096L11.5765 6.90068L11.5945 6.87111L11.5919 6.83511L11.5649 6.80939L11.5032 6.79011L11.4402 6.77211L11.4093 6.87754ZM11.2576 7.09225L11.3759 6.67696L11.5508 6.72839L11.6446 6.76696L11.6819 6.82096V6.89039L11.6318 6.95982L11.5392 6.97396L11.5739 7.02154L11.6009 7.10382L11.6305 7.19896L11.5302 7.17068L11.4942 7.06268L11.4685 6.98811L11.4479 6.96368L11.4068 6.94825L11.3901 6.94311L11.3412 7.11668L11.2576 7.09225ZM11.9028 7.06139L11.8977 7.17711L11.9671 7.24139L12.0584 7.23239L12.1278 7.13853L12.1342 7.02282L12.0635 6.95982L11.9709 6.96625L11.9028 7.06139ZM11.8179 7.03439L11.8719 6.93668L11.9285 6.89425L11.9928 6.87496L12.0879 6.89039L12.2114 6.99582V7.16939L12.1047 7.30439L11.9427 7.31082L11.8179 7.20668V7.03439Z" fill="#00923E"/>
<path fill-rule="evenodd" clip-rule="evenodd" d="M12.543 7.36201L12.57 7.29501L12.744 7.36601L12.679 7.52401L12.588 7.53801L12.484 7.51601L12.385 7.44601L12.348 7.34201L12.367 7.22601L12.439 7.12601L12.546 7.08301L12.649 7.10401L12.751 7.18201L12.769 7.29001L12.683 7.27201L12.672 7.21201L12.622 7.17201L12.523 7.17101L12.451 7.25701L12.439 7.37601L12.507 7.44601L12.562 7.45601L12.615 7.45101L12.636 7.39901L12.543 7.36201Z" fill="#00923E"/>
<path fill-rule="evenodd" clip-rule="evenodd" d="M13.0065 7.46575L13.0656 7.49404L13.1376 7.52233L13.1672 7.51718L13.189 7.49147L13.1942 7.45547L13.171 7.4259L13.1157 7.39761L13.0527 7.36804L13.0065 7.46575ZM12.8213 7.65347L13.0065 7.26518L13.171 7.34361L13.2559 7.39761L13.2855 7.45547L13.2713 7.5249L13.2122 7.58533L13.1183 7.58404L13.144 7.63675L13.1595 7.72161L13.171 7.81932L13.0772 7.77561L13.0605 7.66375L13.0463 7.58661L13.0309 7.55833L12.9923 7.53647L12.9782 7.52875L12.8997 7.69075L12.8213 7.65347Z" fill="#00923E"/>
<path fill-rule="evenodd" clip-rule="evenodd" d="M13.296 7.885L13.502 7.507L13.783 7.659L13.749 7.723L13.542 7.613L13.497 7.697L13.689 7.799L13.653 7.863L13.464 7.76L13.408 7.863L13.619 7.978L13.586 8.042L13.296 7.885Z" fill="#00923E"/>
<path fill-rule="evenodd" clip-rule="evenodd" d="M13.786 7.995L13.863 8.031L13.857 8.102L13.899 8.152L13.964 8.169L14.004 8.144L14.01 8.117L13.992 8.085L13.942 8.034L13.88 7.946L13.892 7.852L13.939 7.807L14.007 7.8L14.087 7.83L14.173 7.923L14.162 8.027L14.085 7.986L14.09 7.932L14.05 7.891L13.991 7.873L13.966 7.89L13.964 7.918L14.018 7.983L14.081 8.059L14.097 8.122L14.078 8.189L14.025 8.238L13.95 8.248L13.862 8.214L13.773 8.116L13.786 7.995Z" fill="#00923E"/>
<path fill-rule="evenodd" clip-rule="evenodd" d="M14.217 8.261L14.293 8.302L14.282 8.37L14.324 8.422L14.387 8.444L14.426 8.421L14.434 8.395L14.419 8.361L14.371 8.308L14.313 8.216L14.33 8.124L14.38 8.081L14.45 8.076L14.527 8.111L14.608 8.209L14.591 8.313L14.516 8.266L14.523 8.214L14.487 8.171L14.429 8.151L14.402 8.164L14.398 8.193L14.448 8.261L14.509 8.34L14.523 8.403L14.5 8.47L14.443 8.516L14.369 8.524L14.282 8.482L14.199 8.382L14.217 8.261Z" fill="#00923E"/>
<path fill-rule="evenodd" clip-rule="evenodd" d="M14.7543 8.54305L14.7157 8.65234L14.7607 8.73334L14.8507 8.75648L14.9458 8.68577L14.987 8.57905L14.9394 8.49805L14.8481 8.47491L14.7543 8.54305ZM14.681 8.49034L14.7645 8.41577L14.8314 8.39262L14.8983 8.3952L14.9844 8.43762L15.0693 8.57648L15.0153 8.74234L14.8725 8.83748L14.7157 8.79377L14.6295 8.65362L14.681 8.49034Z" fill="#00923E"/>
<path fill-rule="evenodd" clip-rule="evenodd" d="M12.308 6.453L12.35 6.578H12.481L12.375 6.655L12.415 6.778L12.308 6.703L12.203 6.778L12.244 6.655L12.139 6.578H12.27L12.308 6.453Z" fill="white"/>
<path fill-rule="evenodd" clip-rule="evenodd" d="M10.928 10.01L10.968 10.135H11.099L10.994 10.211L11.034 10.335L10.928 10.258L10.823 10.335L10.863 10.211L10.757 10.135H10.889L10.928 10.01Z" fill="white"/>
<path fill-rule="evenodd" clip-rule="evenodd" d="M14.054 9.57301L14.095 9.70001H14.229L14.121 9.77801L14.162 9.90401L14.054 9.82601L13.947 9.90401L13.987 9.77801L13.88 9.70001H14.013L14.054 9.57301Z" fill="white"/>
<path fill-rule="evenodd" clip-rule="evenodd" d="M14.67 9.67801L14.697 9.75801H14.782L14.713 9.80901L14.74 9.89001L14.67 9.84001L14.602 9.89001L14.628 9.80901L14.56 9.75801H14.644L14.67 9.67801Z" fill="white"/>
<path fill-rule="evenodd" clip-rule="evenodd" d="M14.232 9.99301L14.268 10.102H14.384L14.29 10.17L14.326 10.281L14.232 10.212L14.139 10.281L14.175 10.17L14.082 10.102H14.197L14.232 9.99301Z" fill="white"/>
<path fill-rule="evenodd" clip-rule="evenodd" d="M13.957 10.356L13.992 10.464H14.105L14.015 10.531L14.05 10.639L13.957 10.572L13.867 10.639L13.902 10.531L13.809 10.464H13.924L13.957 10.356Z" fill="white"/>
<path fill-rule="evenodd" clip-rule="evenodd" d="M13.604 10.62L13.631 10.702H13.719L13.648 10.755L13.676 10.837L13.604 10.786L13.533 10.837L13.56 10.755L13.49 10.702H13.577L13.604 10.62Z" fill="white"/>
<path fill-rule="evenodd" clip-rule="evenodd" d="M13.141 10.531L13.168 10.612H13.254L13.185 10.664L13.212 10.746L13.141 10.695L13.071 10.746L13.098 10.664L13.029 10.612H13.115L13.141 10.531Z" fill="white"/>
<path fill-rule="evenodd" clip-rule="evenodd" d="M12.642 10.682L12.671 10.771H12.764L12.689 10.826L12.718 10.915L12.642 10.859L12.566 10.915L12.596 10.826L12.52 10.771H12.614L12.642 10.682Z" fill="white"/>
<path fill-rule="evenodd" clip-rule="evenodd" d="M13.15 11.409L13.177 11.492H13.264L13.193 11.544L13.222 11.627L13.15 11.576L13.078 11.627L13.106 11.544L13.035 11.492H13.123L13.15 11.409Z" fill="white"/>
<path fill-rule="evenodd" clip-rule="evenodd" d="M12.251 11.026L12.287 11.139H12.406L12.31 11.21L12.347 11.322L12.251 11.252L12.154 11.322L12.191 11.21L12.095 11.139H12.215L12.251 11.026Z" fill="white"/>
<path fill-rule="evenodd" clip-rule="evenodd" d="M11.905 10.566L11.934 10.653H12.026L11.952 10.705L11.981 10.793L11.905 10.74L11.832 10.793L11.86 10.705L11.787 10.653H11.878L11.905 10.566Z" fill="white"/>
<path fill-rule="evenodd" clip-rule="evenodd" d="M13.163 10.927L13.199 11.036H13.315L13.221 11.104L13.256 11.215L13.163 11.147L13.071 11.215L13.106 11.104L13.013 11.036H13.129L13.163 10.927Z" fill="white"/>
<path fill-rule="evenodd" clip-rule="evenodd" d="M10.923 11.634L10.936 11.674H10.977L10.944 11.699L10.956 11.738L10.923 11.714L10.89 11.738L10.902 11.699L10.869 11.674H10.911L10.923 11.634Z" fill="white"/>
<path fill-rule="evenodd" clip-rule="evenodd" d="M12.091 7.793L12.121 7.883H12.216L12.139 7.938L12.17 8.029L12.091 7.974L12.015 8.029L12.045 7.938L11.968 7.883H12.063L12.091 7.793Z" fill="white"/>
<path fill-rule="evenodd" clip-rule="evenodd" d="M10.926 8.763L10.957 8.859H11.058L10.976 8.918L11.007 9.013L10.926 8.952L10.846 9.013L10.877 8.918L10.795 8.859H10.896L10.926 8.763Z" fill="white"/>
<path fill-rule="evenodd" clip-rule="evenodd" d="M11.443 9.164L11.475 9.265H11.583L11.497 9.328L11.531 9.43L11.443 9.367L11.357 9.43L11.391 9.328L11.303 9.265H11.411L11.443 9.164Z" fill="white"/>
<path fill-rule="evenodd" clip-rule="evenodd" d="M10.479 9.17801L10.505 9.25701H10.59L10.52 9.30801L10.547 9.38901L10.479 9.33801L10.41 9.38901L10.437 9.30801L10.367 9.25701H10.452L10.479 9.17801Z" fill="white"/>
<path fill-rule="evenodd" clip-rule="evenodd" d="M10.692 9.54001L10.71 9.59401H10.767L10.719 9.62701L10.737 9.68001L10.692 9.64701L10.647 9.68001L10.665 9.62701L10.619 9.59401H10.674L10.692 9.54001Z" fill="white"/>
<path fill-rule="evenodd" clip-rule="evenodd" d="M7.27201 7.22L7.31201 7.345H7.44301L7.33801 7.421L7.37801 7.546L7.27201 7.468L7.16701 7.546L7.20701 7.421L7.10101 7.345H7.23201L7.27201 7.22Z" fill="white"/>
<path fill-rule="evenodd" clip-rule="evenodd" d="M9.19801 8.22L9.23001 8.323H9.33801L9.25201 8.386L9.28601 8.488L9.19801 8.425L9.11101 8.488L9.14601 8.386L9.05801 8.323H9.16601L9.19801 8.22Z" fill="white"/>
<path fill-rule="evenodd" clip-rule="evenodd" d="M7.67199 9.09001L7.71099 9.21501H7.84199L7.73699 9.29401L7.77699 9.41701L7.67199 9.34001L7.56499 9.41701L7.60499 9.29401L7.49899 9.21501H7.62999L7.67199 9.09001Z" fill="white"/>
<path fill-rule="evenodd" clip-rule="evenodd" d="M8.10301 8.905L8.12401 8.968H8.18801L8.13601 9.006L8.15601 9.068L8.10301 9.029L8.05101 9.068L8.07101 9.006L8.01901 8.968H8.08301L8.10301 8.905Z" fill="white"/>
<path fill-rule="evenodd" clip-rule="evenodd" d="M8.60601 9.55901L8.63901 9.66601H8.75101L8.66102 9.73001L8.69402 9.83701L8.60601 9.77201L8.51401 9.83701L8.54902 9.73001L8.45901 9.66601H8.57102L8.60601 9.55901Z" fill="white"/>
<path fill-rule="evenodd" clip-rule="evenodd" d="M9.12901 10.378L9.16901 10.503H9.30001L9.19501 10.579L9.23501 10.702L9.12901 10.626L9.02401 10.702L9.06401 10.579L8.95801 10.503H9.08901L9.12901 10.378Z" fill="white"/>
<path fill-rule="evenodd" clip-rule="evenodd" d="M8.46 10.004L8.495 10.109H8.605L8.517 10.175L8.55 10.28L8.46 10.216L8.371 10.28L8.405 10.175L8.315 10.109H8.427L8.46 10.004Z" fill="white"/>
<path fill-rule="evenodd" clip-rule="evenodd" d="M7.119 9.543L7.146 9.625H7.232L7.161 9.677L7.19 9.758L7.119 9.708L7.048 9.758L7.075 9.677L7.005 9.625H7.092L7.119 9.543Z" fill="white"/>
</g>
</svg>
