<svg width="22" height="16" viewBox="0 0 22 16" fill="none" xmlns="http://www.w3.org/2000/svg">
<mask id="mask0_12_10074" style="mask-type:alpha" maskUnits="userSpaceOnUse" x="0" y="0" width="22" height="16">
<path d="M21 0H1C0.447715 0 0 0.447715 0 1V15C0 15.5523 0.447715 16 1 16H21C21.5523 16 22 15.5523 22 15V1C22 0.447715 21.5523 0 21 0Z" fill="white"/>
</mask>
<g mask="url(#mask0_12_10074)">
<path d="M21.5 -0.5H0.5C-0.0522848 -0.5 -0.5 -0.0522848 -0.5 0.5V15.5C-0.5 16.0523 -0.0522848 16.5 0.5 16.5H21.5C22.0523 16.5 22.5 16.0523 22.5 15.5V0.5C22.5 -0.0522848 22.0523 -0.5 21.5 -0.5Z" stroke="black" stroke-opacity="0.3"/>
<path d="M22 0H0V16H22V0Z" fill="white"/>
<path fill-rule="evenodd" clip-rule="evenodd" d="M10.7607 13.9334H10.9488L10.8881 11.3798L11.0631 11.2268C11.8476 11.3227 12.5512 11.4089 13.3369 11.5061L13.1369 10.8079C13.1048 10.6852 13.1512 10.5516 13.2405 10.4764L15.5214 8.50193L15.0488 8.26514C14.8417 8.18621 14.9 8.06236 14.9738 7.76243L15.3214 6.41336L13.9976 6.70964C13.8679 6.73029 13.7821 6.64286 13.7619 6.56029L13.5905 5.92521L12.544 7.17593C12.3952 7.37629 12.094 7.37629 12.1869 6.91243L12.6357 4.37943L12.0345 4.71093C11.8667 4.8105 11.6976 4.8275 11.6036 4.649L10.7607 3L9.91786 4.649C9.82381 4.8275 9.65476 4.8105 9.48691 4.71093L8.8869 4.37943L9.33452 6.91243C9.42738 7.37629 9.12619 7.37629 8.97738 7.17593L7.92976 5.92521L7.75952 6.56029C7.73929 6.64286 7.65476 6.73029 7.525 6.70964L6.2 6.41336L6.54762 7.76243C6.62262 8.06236 6.68095 8.18621 6.47262 8.26514L6 8.50193L8.28095 10.4764C8.37143 10.5516 8.41667 10.6852 8.38452 10.8079L8.18452 11.5061C8.96905 11.4089 9.67381 11.3227 10.4583 11.2268L10.6333 11.3798L10.5726 13.9334H10.7607Z" fill="#E31937"/>
<path d="M5 0H0V16H5V0Z" fill="#E31937"/>
<path d="M22 0H17V16H22V0Z" fill="#E31937"/>
</g>
</svg>
