<svg width="22" height="16" viewBox="0 0 22 16" fill="none" xmlns="http://www.w3.org/2000/svg">
<mask id="mask0_12_9200" style="mask-type:alpha" maskUnits="userSpaceOnUse" x="0" y="0" width="22" height="16">
<path d="M21 0H1C0.447715 0 0 0.447715 0 1V15C0 15.5523 0.447715 16 1 16H21C21.5523 16 22 15.5523 22 15V1C22 0.447715 21.5523 0 21 0Z" fill="white"/>
</mask>
<g mask="url(#mask0_12_9200)">
<path d="M21.5 -0.5H0.5C-0.0522848 -0.5 -0.5 -0.0522848 -0.5 0.5V15.5C-0.5 16.0523 -0.0522848 16.5 0.5 16.5H21.5C22.0523 16.5 22.5 16.0523 22.5 15.5V0.5C22.5 -0.0522848 22.0523 -0.5 21.5 -0.5Z" stroke="black" stroke-opacity="0.3"/>
<path fill-rule="evenodd" clip-rule="evenodd" d="M0.0539856 12.304H26.823V11.079H0.0539856V12.304Z" fill="white"/>
<path fill-rule="evenodd" clip-rule="evenodd" d="M0.0539856 11.078H26.823V9.852H0.0539856V11.078Z" fill="#BF0A30"/>
<path fill-rule="evenodd" clip-rule="evenodd" d="M0.0539856 14.754H26.823V13.529H0.0539856V14.754Z" fill="white"/>
<path fill-rule="evenodd" clip-rule="evenodd" d="M0.0539856 15.98H26.823V14.754H0.0539856V15.98Z" fill="#BF0A30"/>
<path fill-rule="evenodd" clip-rule="evenodd" d="M0.0539856 13.529H26.823V12.304H0.0539856V13.529Z" fill="#BF0A30"/>
<path fill-rule="evenodd" clip-rule="evenodd" d="M0.0539856 9.852H26.823V8.626H0.0539856V9.852Z" fill="white"/>
<path fill-rule="evenodd" clip-rule="evenodd" d="M0.0539856 6.176H26.823V4.95H0.0539856V6.176Z" fill="#BF0A30"/>
<path fill-rule="evenodd" clip-rule="evenodd" d="M0.0539856 2.499H26.823V1.274H0.0539856V2.499Z" fill="white"/>
<path fill-rule="evenodd" clip-rule="evenodd" d="M0.0539856 3.725H26.823V2.499H0.0539856V3.725Z" fill="#BF0A30"/>
<path fill-rule="evenodd" clip-rule="evenodd" d="M0.0539856 8.626H26.823V7.4H0.0539856V8.626Z" fill="#BF0A30"/>
<path fill-rule="evenodd" clip-rule="evenodd" d="M0.0539856 1.274H26.823V0.05H0.0539856V1.274Z" fill="#BF0A30"/>
<path fill-rule="evenodd" clip-rule="evenodd" d="M0.0539856 4.95H26.823V3.725H0.0539856V4.95Z" fill="white"/>
<path fill-rule="evenodd" clip-rule="evenodd" d="M0.0539856 7.4H26.823V6.176H0.0539856V7.4Z" fill="white"/>
<path fill-rule="evenodd" clip-rule="evenodd" d="M0.0499878 8.641H9.49799V0.05H0.0499878V8.641Z" fill="#002868"/>
<path fill-rule="evenodd" clip-rule="evenodd" d="M1.24999 1.537L0.955987 1.655L0.976987 1.339L0.773987 1.095L1.08099 1.018L1.24999 0.75L1.41899 1.018L1.72599 1.095L1.52299 1.339L1.54399 1.655L1.24999 1.537Z" fill="white"/>
<path fill-rule="evenodd" clip-rule="evenodd" d="M3.24999 1.537L2.95599 1.655L2.97699 1.339L2.77399 1.095L3.08099 1.018L3.24999 0.75L3.41899 1.018L3.72599 1.095L3.52299 1.339L3.54399 1.655L3.24999 1.537Z" fill="white"/>
<path fill-rule="evenodd" clip-rule="evenodd" d="M5.24999 1.537L4.95599 1.655L4.97699 1.339L4.77399 1.095L5.08099 1.018L5.24999 0.75L5.41899 1.018L5.72599 1.095L5.52299 1.339L5.54399 1.655L5.24999 1.537Z" fill="white"/>
<path fill-rule="evenodd" clip-rule="evenodd" d="M7.24999 1.537L6.95599 1.655L6.97699 1.339L6.77399 1.095L7.08099 1.018L7.24999 0.75L7.41899 1.018L7.72599 1.095L7.52299 1.339L7.54399 1.655L7.24999 1.537Z" fill="white"/>
<path fill-rule="evenodd" clip-rule="evenodd" d="M2.24999 2.537L1.95599 2.655L1.97699 2.339L1.77399 2.095L2.08099 2.018L2.24999 1.75L2.41899 2.018L2.72599 2.095L2.52299 2.339L2.54399 2.655L2.24999 2.537Z" fill="white"/>
<path fill-rule="evenodd" clip-rule="evenodd" d="M1.24999 3.537L0.955987 3.655L0.976987 3.339L0.773987 3.095L1.08099 3.018L1.24999 2.75L1.41899 3.018L1.72599 3.095L1.52299 3.339L1.54399 3.655L1.24999 3.537Z" fill="white"/>
<path fill-rule="evenodd" clip-rule="evenodd" d="M2.24999 4.537L1.95599 4.655L1.97699 4.339L1.77399 4.095L2.08099 4.018L2.24999 3.75L2.41899 4.018L2.72599 4.095L2.52299 4.339L2.54399 4.655L2.24999 4.537Z" fill="white"/>
<path fill-rule="evenodd" clip-rule="evenodd" d="M1.24999 5.537L0.955987 5.655L0.976987 5.339L0.773987 5.095L1.08099 5.018L1.24999 4.75L1.41899 5.018L1.72599 5.095L1.52299 5.339L1.54399 5.655L1.24999 5.537Z" fill="white"/>
<path fill-rule="evenodd" clip-rule="evenodd" d="M2.24999 6.537L1.95599 6.655L1.97699 6.339L1.77399 6.095L2.08099 6.018L2.24999 5.75L2.41899 6.018L2.72599 6.095L2.52299 6.339L2.54399 6.655L2.24999 6.537Z" fill="white"/>
<path fill-rule="evenodd" clip-rule="evenodd" d="M1.24999 7.537L0.955987 7.655L0.976987 7.339L0.773987 7.095L1.08099 7.018L1.24999 6.75L1.41899 7.018L1.72599 7.095L1.52299 7.339L1.54399 7.655L1.24999 7.537Z" fill="white"/>
<path fill-rule="evenodd" clip-rule="evenodd" d="M4.24999 2.537L3.95599 2.655L3.97699 2.339L3.77399 2.095L4.08099 2.018L4.24999 1.75L4.41899 2.018L4.72599 2.095L4.52299 2.339L4.54399 2.655L4.24999 2.537Z" fill="white"/>
<path fill-rule="evenodd" clip-rule="evenodd" d="M3.24999 3.537L2.95599 3.655L2.97699 3.339L2.77399 3.095L3.08099 3.018L3.24999 2.75L3.41899 3.018L3.72599 3.095L3.52299 3.339L3.54399 3.655L3.24999 3.537Z" fill="white"/>
<path fill-rule="evenodd" clip-rule="evenodd" d="M4.24999 4.537L3.95599 4.655L3.97699 4.339L3.77399 4.095L4.08099 4.018L4.24999 3.75L4.41899 4.018L4.72599 4.095L4.52299 4.339L4.54399 4.655L4.24999 4.537Z" fill="white"/>
<path fill-rule="evenodd" clip-rule="evenodd" d="M3.24999 5.537L2.95599 5.655L2.97699 5.339L2.77399 5.095L3.08099 5.018L3.24999 4.75L3.41899 5.018L3.72599 5.095L3.52299 5.339L3.54399 5.655L3.24999 5.537Z" fill="white"/>
<path fill-rule="evenodd" clip-rule="evenodd" d="M4.24999 6.537L3.95599 6.655L3.97699 6.339L3.77399 6.095L4.08099 6.018L4.24999 5.75L4.41899 6.018L4.72599 6.095L4.52299 6.339L4.54399 6.655L4.24999 6.537Z" fill="white"/>
<path fill-rule="evenodd" clip-rule="evenodd" d="M3.24999 7.537L2.95599 7.655L2.97699 7.339L2.77399 7.095L3.08099 7.018L3.24999 6.75L3.41899 7.018L3.72599 7.095L3.52299 7.339L3.54399 7.655L3.24999 7.537Z" fill="white"/>
<path fill-rule="evenodd" clip-rule="evenodd" d="M6.24999 2.537L5.95599 2.655L5.97699 2.339L5.77399 2.095L6.08099 2.018L6.24999 1.75L6.41899 2.018L6.72599 2.095L6.52299 2.339L6.54399 2.655L6.24999 2.537Z" fill="white"/>
<path fill-rule="evenodd" clip-rule="evenodd" d="M5.24999 3.537L4.95599 3.655L4.97699 3.339L4.77399 3.095L5.08099 3.018L5.24999 2.75L5.41899 3.018L5.72599 3.095L5.52299 3.339L5.54399 3.655L5.24999 3.537Z" fill="white"/>
<path fill-rule="evenodd" clip-rule="evenodd" d="M6.24999 4.537L5.95599 4.655L5.97699 4.339L5.77399 4.095L6.08099 4.018L6.24999 3.75L6.41899 4.018L6.72599 4.095L6.52299 4.339L6.54399 4.655L6.24999 4.537Z" fill="white"/>
<path fill-rule="evenodd" clip-rule="evenodd" d="M5.24999 5.537L4.95599 5.655L4.97699 5.339L4.77399 5.095L5.08099 5.018L5.24999 4.75L5.41899 5.018L5.72599 5.095L5.52299 5.339L5.54399 5.655L5.24999 5.537Z" fill="white"/>
<path fill-rule="evenodd" clip-rule="evenodd" d="M6.24999 6.537L5.95599 6.655L5.97699 6.339L5.77399 6.095L6.08099 6.018L6.24999 5.75L6.41899 6.018L6.72599 6.095L6.52299 6.339L6.54399 6.655L6.24999 6.537Z" fill="white"/>
<path fill-rule="evenodd" clip-rule="evenodd" d="M5.24999 7.537L4.95599 7.655L4.97699 7.339L4.77399 7.095L5.08099 7.018L5.24999 6.75L5.41899 7.018L5.72599 7.095L5.52299 7.339L5.54399 7.655L5.24999 7.537Z" fill="white"/>
<path fill-rule="evenodd" clip-rule="evenodd" d="M8.24999 2.537L7.95599 2.655L7.97699 2.339L7.77399 2.095L8.08099 2.018L8.24999 1.75L8.41899 2.018L8.72599 2.095L8.52299 2.339L8.54399 2.655L8.24999 2.537Z" fill="white"/>
<path fill-rule="evenodd" clip-rule="evenodd" d="M7.24999 3.537L6.95599 3.655L6.97699 3.339L6.77399 3.095L7.08099 3.018L7.24999 2.75L7.41899 3.018L7.72599 3.095L7.52299 3.339L7.54399 3.655L7.24999 3.537Z" fill="white"/>
<path fill-rule="evenodd" clip-rule="evenodd" d="M8.24999 4.537L7.95599 4.655L7.97699 4.339L7.77399 4.095L8.08099 4.018L8.24999 3.75L8.41899 4.018L8.72599 4.095L8.52299 4.339L8.54399 4.655L8.24999 4.537Z" fill="white"/>
<path fill-rule="evenodd" clip-rule="evenodd" d="M7.24999 5.537L6.95599 5.655L6.97699 5.339L6.77399 5.095L7.08099 5.018L7.24999 4.75L7.41899 5.018L7.72599 5.095L7.52299 5.339L7.54399 5.655L7.24999 5.537Z" fill="white"/>
<path fill-rule="evenodd" clip-rule="evenodd" d="M8.24999 6.537L7.95599 6.655L7.97699 6.339L7.77399 6.095L8.08099 6.018L8.24999 5.75L8.41899 6.018L8.72599 6.095L8.52299 6.339L8.54399 6.655L8.24999 6.537Z" fill="white"/>
<path fill-rule="evenodd" clip-rule="evenodd" d="M7.24999 7.537L6.95599 7.655L6.97699 7.339L6.77399 7.095L7.08099 7.018L7.24999 6.75L7.41899 7.018L7.72599 7.095L7.52299 7.339L7.54399 7.655L7.24999 7.537Z" fill="white"/>
</g>
</svg>
