<svg viewBox="0 0 16 16" xmlns="http://www.w3.org/2000/svg"><path d="M10.6032 1.23307C10.9686 1.42816 11.1067 1.88252 10.9116 2.24792L9.6616 4.58915C9.46652 4.95455 9.01216 5.09261 8.64676 4.89752C8.28136 4.70244 8.1433 4.24807 8.33839 3.88268L9.58839 1.54144C9.78348 1.17605 10.2378 1.03798 10.6032 1.23307Z"/><path fill-rule="evenodd" clip-rule="evenodd" d="M4.05265 6.65677C4.11117 6.32038 4.25889 5.94937 4.58081 5.62745C5.12995 5.07831 5.82195 5.03608 6.2413 5.07879C6.6756 5.12303 7.0859 5.27633 7.42801 5.44302C8.12595 5.7831 8.86585 6.33998 9.53236 7.00649C10.1989 7.673 10.7558 8.4129 11.0958 9.11084C11.2625 9.45295 11.4158 9.86326 11.4601 10.2976C11.5028 10.7169 11.4605 11.4089 10.9114 11.958C10.5598 12.3096 10.1497 12.4534 9.79004 12.5002L1.77685 15.6826C1.49793 15.7933 1.17984 15.7272 0.96822 15.5144C0.756603 15.3016 0.692211 14.9831 0.804528 14.7048L4.05265 6.65677ZM7.46981 11.8077C6.95714 11.4815 6.43949 11.0587 5.95984 10.579C5.4698 10.089 5.03901 9.55924 4.71009 9.0357L2.85104 13.642L7.46981 11.8077ZM9.85074 10.8974C9.45 11.2981 8.18286 10.6807 7.0205 9.51835C5.85815 8.35599 5.24073 7.08885 5.64147 6.68811C6.0422 6.28738 7.30934 6.90479 8.4717 8.06715C9.63406 9.22951 10.2515 10.4967 9.85074 10.8974Z"/><path d="M14.7325 9.21845C15.1359 9.12433 15.3866 8.72103 15.2925 8.31765C15.1984 7.91427 14.7951 7.66356 14.3917 7.75768L12.8296 8.12216C12.4262 8.21627 12.1755 8.61957 12.2696 9.02295C12.3637 9.42633 12.767 9.67704 13.1704 9.58292L14.7325 9.21845Z"/><path d="M5.50684 2.8744C5.36514 2.77501 5.16985 2.74149 5.04671 2.74918C4.6333 2.77497 4.27725 2.46075 4.25146 2.04734C4.22566 1.63393 4.53988 1.27788 4.95329 1.25209C5.33015 1.22857 5.88486 1.30737 6.36816 1.64633C6.8942 2.01528 7.25 2.63404 7.25 3.49819C7.25 3.91241 6.91421 4.24819 6.5 4.24819C6.08579 4.24819 5.75 3.91241 5.75 3.49819C5.75 3.08942 5.6058 2.9438 5.50684 2.8744Z"/><path d="M15.4854 2.60111C15.4042 2.19494 15.0091 1.93153 14.6029 2.01276C14.1967 2.09399 13.9333 2.48911 14.0146 2.89528C14.0911 3.27778 13.9764 3.49959 13.8248 3.63675C13.6481 3.79675 13.3363 3.91204 12.9429 3.87627C11.9767 3.78844 11.3021 4.24337 10.9041 4.8288C10.5359 5.37059 10.4022 6.01406 10.3763 6.45415C10.352 6.86765 10.6675 7.22258 11.081 7.2469C11.4945 7.27122 11.8494 6.95574 11.8737 6.54224C11.8895 6.274 11.9759 5.92042 12.1447 5.67203C12.2839 5.46727 12.4634 5.33887 12.8071 5.37011C13.5387 5.43662 14.2894 5.23941 14.8314 4.74884C15.3986 4.23544 15.6589 3.4686 15.4854 2.60111Z"/></svg>
